<svg xmlns="http://www.w3.org/2000/svg" viewBox="0 0 52.5 52.5"><defs><style>.a{fill:#ff5f00;stroke:#ff5f00;stroke-width:0.5px;}</style></defs><g transform="translate(0.25 0.25)"><path class="a" d="M11.571,23.143A5.571,5.571,0,1,0,6,17.571,5.577,5.577,0,0,0,11.571,23.143Zm0-9.286a3.714,3.714,0,1,1-3.714,3.714A3.718,3.718,0,0,1,11.571,13.857Z" transform="translate(-0.429 -0.857)"/><path class="a" d="M43.571,23.143A5.571,5.571,0,1,0,38,17.571,5.577,5.577,0,0,0,43.571,23.143Zm0-9.286a3.714,3.714,0,1,1-3.714,3.714A3.718,3.718,0,0,1,43.571,13.857Z" transform="translate(-2.714 -0.857)"/><path class="a" d="M50.143,26V38.071a2.789,2.789,0,0,1-2.786,2.786V30.643A4.648,4.648,0,0,0,42.714,26H38.071a.929.929,0,0,0-.929.929V32.5H29.714a.929.929,0,0,0-.929.929v2.786H23.214V33.429a.929.929,0,0,0-.929-.929H14.857V26.929A.929.929,0,0,0,13.929,26H9.286a4.648,4.648,0,0,0-4.643,4.643V40.857a2.789,2.789,0,0,1-2.786-2.786V26H0V38.071a4.645,4.645,0,0,0,2.786,4.249V53.857H4.643V42.714h9.286V52.929a.929.929,0,0,0,.929.929H19.5V38.071h13V53.857h4.643a.929.929,0,0,0,.929-.929V42.714h9.286V53.857h1.857V42.321A4.645,4.645,0,0,0,52,38.071V26ZM18.571,36.214H11.143V30.643H9.286v6.5a.929.929,0,0,0,.929.929h6.5a.93.93,0,0,1,.929.929V52H15.786V41.786a.929.929,0,0,0-.929-.929H6.5V30.643a2.789,2.789,0,0,1,2.786-2.786H13v5.571a.929.929,0,0,0,.929.929h7.429v1.857Zm18.571,4.643a.929.929,0,0,0-.929.929V52H34.357V39a.93.93,0,0,1,.929-.929h6.5a.929.929,0,0,0,.929-.929v-6.5H40.857v5.571H30.643V34.357h7.429A.929.929,0,0,0,39,33.429V27.857h3.714A2.789,2.789,0,0,1,45.5,30.643V40.857Z" transform="translate(0 -1.857)"/><path class="a" d="M18.786,9.286v2.786a.929.929,0,0,0,.635.881.946.946,0,0,0,.293.047.931.931,0,0,0,.743-.371l2.507-3.343h6.964A2.789,2.789,0,0,0,32.714,6.5V2.786A2.789,2.789,0,0,0,29.929,0H18.786A2.789,2.789,0,0,0,16,2.786V6.5A2.789,2.789,0,0,0,18.786,9.286Zm-.929-6.5a.93.93,0,0,1,.929-.929H29.929a.93.93,0,0,1,.929.929V6.5a.93.93,0,0,1-.929.929H22.5a.928.928,0,0,0-.743.371L20.643,9.286V8.357a.929.929,0,0,0-.929-.929h-.929a.93.93,0,0,1-.929-.929Z" transform="translate(-1.143)"/><rect class="a" width="9.286" height="1.857" transform="translate(18.571 3.714)"/><rect class="a" width="5.571" height="1.857" transform="translate(25.071 23.214)"/><path class="a" d="M25.786,21A2.789,2.789,0,0,0,23,23.786V27.5a2.789,2.789,0,0,0,2.786,2.786h7.429A2.789,2.789,0,0,0,36,27.5v-.647L37.7,24.3a.929.929,0,0,0-.773-1.444H35.841A2.791,2.791,0,0,0,33.214,21Zm8.357,2.786a.929.929,0,0,0,.929.929h.122L34.3,26.056a.934.934,0,0,0-.156.515V27.5a.93.93,0,0,1-.929.929H25.786a.93.93,0,0,1-.929-.929V23.786a.93.93,0,0,1,.929-.929h7.429A.93.93,0,0,1,34.143,23.786Z" transform="translate(-1.643 -1.5)"/><rect class="a" width="1.857" height="1.857" transform="translate(21.357 14.857)"/><rect class="a" width="1.857" height="1.857" transform="translate(25.071 14.857)"/><rect class="a" width="1.857" height="1.857" transform="translate(28.786 14.857)"/></g></svg>