<svg xmlns="http://www.w3.org/2000/svg" viewBox="0 0 52 52"><defs><style>.a{fill:#ff5f00;}</style></defs><g transform="translate(-688.796 -1942)"><g transform="translate(688.796 1963.988)"><path class="a" d="M45.329,234.6A7.8,7.8,0,1,0,34.663,223.34a8.906,8.906,0,0,0-17.327,0A7.8,7.8,0,1,0,6.671,234.6,11.441,11.441,0,0,0,0,244.986v1.523H52v-1.523A11.441,11.441,0,0,0,45.329,234.6Zm-4.754-10.93a4.753,4.753,0,1,1-4.753,4.753A4.759,4.759,0,0,1,40.574,223.668Zm-7.449,7.071a7.825,7.825,0,0,0,2.694,3.86,11.422,11.422,0,0,0-1.065.56,13.2,13.2,0,0,0-3.788-2.367A8.982,8.982,0,0,0,33.126,230.738ZM26,219.545a5.858,5.858,0,1,1-5.858,5.858A5.865,5.865,0,0,1,26,219.545Zm-7.126,11.193a8.978,8.978,0,0,0,2.159,2.053,13.2,13.2,0,0,0-3.788,2.367,11.422,11.422,0,0,0-1.065-.56A7.827,7.827,0,0,0,18.874,230.738Zm-7.449-7.071a4.753,4.753,0,1,1-4.753,4.753A4.759,4.759,0,0,1,11.426,223.668Zm1.494,19.8H3.186a8.374,8.374,0,0,1,11.99-5.967A13.09,13.09,0,0,0,12.92,243.463Zm3.073,0a10.123,10.123,0,0,1,20.015,0Zm23.088,0a13.09,13.09,0,0,0-2.255-5.967,8.374,8.374,0,0,1,11.989,5.967Z" transform="translate(0 -216.498)"/></g><g transform="translate(690.967 1942)"><path class="a" d="M45.346,0H21.38V17.3h8.937L38,21.428,37.947,17.3h7.4ZM42.3,14.256H34.857l.028,2.041-3.8-2.041H24.427V3.047H42.3Z" transform="translate(-21.38)"/></g><g transform="translate(718.403 1948.525)"><path class="a" d="M291.512,64.249V79h6.071l-.049,3.574L304.192,79h7.542V64.249Zm17.175,11.7h-5.261l-2.774,1.489.021-1.489h-6.114V67.3h14.128Z" transform="translate(-291.512 -64.249)"/></g><g transform="translate(697.969 1948.973)"><rect class="a" width="9.961" height="3.047"/></g><g transform="translate(724.424 1954.25)"><rect class="a" width="8.179" height="3.047"/></g></g></svg>