<svg xmlns="http://www.w3.org/2000/svg" viewBox="0 0 24 24"><defs><style>.a{fill:#2b4060;}</style></defs><path class="a" d="M23.1.906A2.962,2.962,0,0,0,20.923,0H3.079A2.963,2.963,0,0,0,.907.906,2.962,2.962,0,0,0,0,3.078V20.922a2.962,2.962,0,0,0,.906,2.172A2.964,2.964,0,0,0,3.079,24H20.923A3.094,3.094,0,0,0,24,20.922V3.078A2.962,2.962,0,0,0,23.1.906ZM8.618,8.648a4.715,4.715,0,0,1,3.4-1.367,4.734,4.734,0,0,1,3.414,1.367,4.428,4.428,0,0,1,1.414,3.3,4.427,4.427,0,0,1-1.414,3.3,4.732,4.732,0,0,1-3.414,1.368,4.716,4.716,0,0,1-3.4-1.368,4.428,4.428,0,0,1-1.414-3.3A4.428,4.428,0,0,1,8.618,8.648ZM21.283,20.282a.91.91,0,0,1-.281.68.931.931,0,0,1-.672.273H3.626a.934.934,0,0,1-.953-.953V10.156h2.2A6.728,6.728,0,0,0,4.564,12.2a6.861,6.861,0,0,0,2.187,5.118,7.3,7.3,0,0,0,5.266,2.117,7.511,7.511,0,0,0,3.75-.969,7.3,7.3,0,0,0,2.719-2.633,6.923,6.923,0,0,0,1-3.633,6.729,6.729,0,0,0-.313-2.047h2.11V20.282h0Zm0-13.954A1.068,1.068,0,0,1,20.2,7.406H17.486a1.067,1.067,0,0,1-1.078-1.078V3.75a1.049,1.049,0,0,1,.312-.758,1.029,1.029,0,0,1,.766-.32H20.2a1.028,1.028,0,0,1,.766.32,1.048,1.048,0,0,1,.313.758Z" transform="translate(-0.001)"/></svg>