<svg xmlns="http://www.w3.org/2000/svg" viewBox="0 0 52.5 52.5"><defs><style>.a{fill:#ff5f00;stroke:#ff5f00;stroke-width:0.5px;}</style></defs><g transform="translate(-25.097 0.25)"><g transform="translate(25.347)"><g transform="translate(0)"><path class="a" d="M76.719,19.1a1.413,1.413,0,0,0-1.271-.026l-8.33,4.04V19.65a1.23,1.23,0,0,0-1.288-1.161h-2.1a10.039,10.039,0,0,0,4.286-8.084C68.021,4.668,62.84,0,56.472,0c-5.435,0-10,3.4-11.227,7.965a9.1,9.1,0,0,0-6.707-2.847c-4.8,0-8.709,3.52-8.709,7.846a7.451,7.451,0,0,0,2.532,5.525H31.185A1.23,1.23,0,0,0,29.9,19.65v5.269H26.635a1.23,1.23,0,0,0-1.288,1.161v4.565A1.23,1.23,0,0,0,26.635,31.8H29.9v5.269a1.23,1.23,0,0,0,1.288,1.161h15.2L39.4,50.3a1.107,1.107,0,0,0,.547,1.566,1.4,1.4,0,0,0,.594.132,1.313,1.313,0,0,0,1.143-.624l6.822-11.791L55.33,51.376A1.313,1.313,0,0,0,56.473,52a1.4,1.4,0,0,0,.594-.132,1.107,1.107,0,0,0,.547-1.566L50.631,38.234h15.2a1.23,1.23,0,0,0,1.288-1.161V33.612l8.33,4.04a1.412,1.412,0,0,0,1.271-.026,1.142,1.142,0,0,0,.628-1V20.094A1.142,1.142,0,0,0,76.719,19.1ZM29.9,29.483H27.924V27.24H29.9ZM56.472,2.321c4.947,0,8.972,3.626,8.972,8.084s-4.025,8.084-8.972,8.084S47.5,14.863,47.5,10.405,51.525,2.321,56.472,2.321ZM46.634,15.849a10.913,10.913,0,0,0,2.575,2.64H44.715A7.851,7.851,0,0,0,46.634,15.849Zm-8.1-8.41c3.381,0,6.132,2.478,6.132,5.525s-2.751,5.525-6.132,5.525-6.132-2.478-6.132-5.525S35.157,7.439,38.538,7.439Zm26,17.615V35.913H32.473V20.81H64.541ZM74.77,34.686l-7.653-3.711V25.748l7.653-3.711Z" transform="translate(-25.347)"/></g></g><g transform="translate(34.625 9.438)"><g transform="translate(0)"><path class="a" d="M111.567,92.931a3.545,3.545,0,1,0,3.913,3.526A3.739,3.739,0,0,0,111.567,92.931Zm0,4.962a1.444,1.444,0,1,1,1.594-1.437A1.523,1.523,0,0,1,111.567,97.893Z" transform="translate(-107.654 -92.931)"/></g></g><g transform="translate(50.852 5.342)"><path class="a" d="M257.229,52.6a5.37,5.37,0,0,0-5.62,5.064,5.651,5.651,0,0,0,11.24,0A5.37,5.37,0,0,0,257.229,52.6Zm0,7.806a2.757,2.757,0,1,1,3.043-2.742A2.908,2.908,0,0,1,257.229,60.4Z" transform="translate(-251.609 -52.595)"/></g><g transform="translate(37.085 24.186)"><g transform="translate(0)"><path class="a" d="M144.707,238.137H130.7a1.168,1.168,0,0,0-1.224,1.1v6.146a1.168,1.168,0,0,0,1.224,1.1h14.007a1.168,1.168,0,0,0,1.224-1.1V239.24A1.168,1.168,0,0,0,144.707,238.137Zm-1.224,6.146H131.924v-3.941h11.559v3.941Z" transform="translate(-129.476 -238.137)"/></g></g><g transform="translate(57.784 25.288)"><ellipse class="a" cx="1.288" cy="1.161" rx="1.288" ry="1.161"/></g><g transform="translate(57.784 29.113)"><ellipse class="a" cx="1.288" cy="1.161" rx="1.288" ry="1.161"/></g></g></svg>